<mxfile host="Electron" modified="2024-06-28T13:50:14.546Z" agent="Mozilla/5.0 (X11; Linux x86_64) AppleWebKit/537.36 (KHTML, like Gecko) draw.io/24.5.3 Chrome/124.0.6367.207 Electron/30.0.6 Safari/537.36" etag="NH4_COpCqONALUUr-QAb" version="24.5.3" type="device">
  <diagram name="Page-1" id="y-7d6MHpmnTL7HZYriRI">
    <mxGraphModel dx="1564" dy="2016" grid="1" gridSize="10" guides="1" tooltips="1" connect="1" arrows="1" fold="1" page="1" pageScale="1" pageWidth="850" pageHeight="1100" math="0" shadow="0">
      <root>
        <mxCell id="0" />
        <mxCell id="1" parent="0" />
        <mxCell id="Eo4oD8oEYdF83mtFnDHt-18" style="edgeStyle=orthogonalEdgeStyle;rounded=0;orthogonalLoop=1;jettySize=auto;html=1;exitX=0.5;exitY=0;exitDx=0;exitDy=0;endArrow=block;endFill=0;fontFamily=Titillium Web;strokeWidth=2;" parent="1" source="Eo4oD8oEYdF83mtFnDHt-19" target="Eo4oD8oEYdF83mtFnDHt-24" edge="1">
          <mxGeometry relative="1" as="geometry" />
        </mxCell>
        <mxCell id="Eo4oD8oEYdF83mtFnDHt-19" value="&lt;font style=&quot;font-size: 20px;&quot;&gt;Activity&lt;/font&gt;" style="swimlane;fontStyle=1;align=center;verticalAlign=top;childLayout=stackLayout;horizontal=1;startSize=40;horizontalStack=0;resizeParent=1;resizeParentMax=0;resizeLast=0;collapsible=1;marginBottom=0;whiteSpace=wrap;html=1;fontFamily=Titillium Web;strokeWidth=2;" parent="1" vertex="1" collapsed="1">
          <mxGeometry x="80" y="70" width="90" height="40" as="geometry">
            <mxRectangle x="340" y="40" width="170" height="176" as="alternateBounds" />
          </mxGeometry>
        </mxCell>
        <mxCell id="Eo4oD8oEYdF83mtFnDHt-20" value="&lt;div style=&quot;font-size: 16px;&quot;&gt;&lt;font style=&quot;font-size: 16px;&quot;&gt;+ datetime: Datetime&lt;/font&gt;&lt;/div&gt;&lt;div style=&quot;font-size: 16px;&quot;&gt;&lt;font style=&quot;font-size: 16px;&quot;&gt;+ method: str&lt;/font&gt;&lt;/div&gt;&lt;div style=&quot;font-size: 16px;&quot;&gt;&lt;font style=&quot;font-size: 16px;&quot;&gt;+ location: str&lt;/font&gt;&lt;/div&gt;&lt;div style=&quot;font-size: 16px;&quot;&gt;&lt;font style=&quot;font-size: 16px;&quot;&gt;+ steps: &lt;b style=&quot;&quot;&gt;ActivityStep&lt;/b&gt;&lt;/font&gt;&lt;br&gt;&lt;/div&gt;" style="text;strokeColor=none;fillColor=none;align=left;verticalAlign=top;spacingLeft=4;spacingRight=4;overflow=hidden;rotatable=0;points=[[0,0.5],[1,0.5]];portConstraint=eastwest;whiteSpace=wrap;html=1;fontFamily=Titillium Web;" parent="Eo4oD8oEYdF83mtFnDHt-19" vertex="1">
          <mxGeometry y="40" width="170" height="94" as="geometry" />
        </mxCell>
        <mxCell id="Eo4oD8oEYdF83mtFnDHt-21" value="" style="line;strokeWidth=2;fillColor=none;align=left;verticalAlign=middle;spacingTop=-1;spacingLeft=3;spacingRight=3;rotatable=0;labelPosition=right;points=[];portConstraint=eastwest;strokeColor=inherit;fontFamily=Titillium Web;" parent="Eo4oD8oEYdF83mtFnDHt-19" vertex="1">
          <mxGeometry y="134" width="170" height="8" as="geometry" />
        </mxCell>
        <mxCell id="Eo4oD8oEYdF83mtFnDHt-22" value="&lt;font style=&quot;font-size: 16px;&quot;&gt;+ normalize()&lt;/font&gt;" style="text;strokeColor=none;fillColor=none;align=left;verticalAlign=top;spacingLeft=4;spacingRight=4;overflow=hidden;rotatable=0;points=[[0,0.5],[1,0.5]];portConstraint=eastwest;whiteSpace=wrap;html=1;fontFamily=Titillium Web;" parent="Eo4oD8oEYdF83mtFnDHt-19" vertex="1">
          <mxGeometry y="142" width="170" height="34" as="geometry" />
        </mxCell>
        <mxCell id="Eo4oD8oEYdF83mtFnDHt-23" style="edgeStyle=orthogonalEdgeStyle;rounded=0;orthogonalLoop=1;jettySize=auto;html=1;entryX=0.5;entryY=1;entryDx=0;entryDy=0;endArrow=block;endFill=0;fontFamily=Titillium Web;exitX=0.5;exitY=0;exitDx=0;exitDy=0;strokeWidth=2;" parent="1" source="Eo4oD8oEYdF83mtFnDHt-28" target="Eo4oD8oEYdF83mtFnDHt-19" edge="1">
          <mxGeometry relative="1" as="geometry">
            <mxPoint x="185" y="350" as="sourcePoint" />
          </mxGeometry>
        </mxCell>
        <mxCell id="Eo4oD8oEYdF83mtFnDHt-24" value="&lt;font style=&quot;font-size: 20px;&quot;&gt;BaseSection&lt;/font&gt;" style="swimlane;fontStyle=1;align=center;verticalAlign=top;childLayout=stackLayout;horizontal=1;startSize=40;horizontalStack=0;resizeParent=1;resizeParentMax=0;resizeLast=0;collapsible=1;marginBottom=0;whiteSpace=wrap;html=1;fontFamily=Titillium Web;strokeWidth=2;" parent="1" vertex="1" collapsed="1">
          <mxGeometry x="65" width="120" height="40" as="geometry">
            <mxRectangle x="160" width="160" height="176" as="alternateBounds" />
          </mxGeometry>
        </mxCell>
        <mxCell id="Eo4oD8oEYdF83mtFnDHt-25" value="&lt;div style=&quot;font-size: 16px;&quot;&gt;&lt;font style=&quot;font-size: 16px;&quot;&gt;+ name: str&lt;/font&gt;&lt;/div&gt;&lt;div style=&quot;font-size: 16px;&quot;&gt;&lt;font style=&quot;font-size: 16px;&quot;&gt;+ datetime: Datetime&lt;/font&gt;&lt;/div&gt;&lt;div style=&quot;font-size: 16px;&quot;&gt;&lt;font style=&quot;font-size: 16px;&quot;&gt;+ lab_id: str&lt;/font&gt;&lt;/div&gt;&lt;div style=&quot;font-size: 16px;&quot;&gt;&lt;font style=&quot;font-size: 16px;&quot;&gt;+ description: str&lt;/font&gt;&lt;br&gt;&lt;/div&gt;" style="text;strokeColor=none;fillColor=none;align=left;verticalAlign=top;spacingLeft=4;spacingRight=4;overflow=hidden;rotatable=0;points=[[0,0.5],[1,0.5]];portConstraint=eastwest;whiteSpace=wrap;html=1;fontFamily=Titillium Web;" parent="Eo4oD8oEYdF83mtFnDHt-24" vertex="1">
          <mxGeometry y="40" width="160" height="94" as="geometry" />
        </mxCell>
        <mxCell id="Eo4oD8oEYdF83mtFnDHt-26" value="" style="line;strokeWidth=2;fillColor=none;align=left;verticalAlign=middle;spacingTop=-1;spacingLeft=3;spacingRight=3;rotatable=0;labelPosition=right;points=[];portConstraint=eastwest;strokeColor=inherit;fontFamily=Titillium Web;" parent="Eo4oD8oEYdF83mtFnDHt-24" vertex="1">
          <mxGeometry y="134" width="160" height="8" as="geometry" />
        </mxCell>
        <mxCell id="Eo4oD8oEYdF83mtFnDHt-27" value="&lt;font style=&quot;font-size: 16px;&quot;&gt;+ normalize()&lt;/font&gt;" style="text;strokeColor=none;fillColor=none;align=left;verticalAlign=top;spacingLeft=4;spacingRight=4;overflow=hidden;rotatable=0;points=[[0,0.5],[1,0.5]];portConstraint=eastwest;whiteSpace=wrap;html=1;fontFamily=Titillium Web;" parent="Eo4oD8oEYdF83mtFnDHt-24" vertex="1">
          <mxGeometry y="142" width="160" height="34" as="geometry" />
        </mxCell>
        <mxCell id="Eo4oD8oEYdF83mtFnDHt-28" value="&lt;font style=&quot;font-size: 20px;&quot;&gt;BaseSimulation&lt;/font&gt;" style="swimlane;fontStyle=1;align=center;verticalAlign=top;childLayout=stackLayout;horizontal=1;startSize=40;horizontalStack=0;resizeParent=1;resizeParentMax=0;resizeLast=0;collapsible=1;marginBottom=0;whiteSpace=wrap;html=1;fontFamily=Titillium Web;strokeWidth=2;" parent="1" vertex="1" collapsed="1">
          <mxGeometry x="50" y="140" width="150" height="40" as="geometry">
            <mxRectangle x="40" y="160" width="200" height="206" as="alternateBounds" />
          </mxGeometry>
        </mxCell>
        <mxCell id="Eo4oD8oEYdF83mtFnDHt-29" value="&lt;div style=&quot;font-size: 16px;&quot;&gt;&lt;font style=&quot;font-size: 16px;&quot;&gt;+ datetime_end: Datetime&lt;/font&gt;&lt;/div&gt;&lt;div style=&quot;font-size: 16px;&quot;&gt;&lt;font style=&quot;font-size: 16px;&quot;&gt;+ cpu1_start: np.float64, s&lt;/font&gt;&lt;/div&gt;&lt;div style=&quot;font-size: 16px;&quot;&gt;&lt;font style=&quot;font-size: 16px;&quot;&gt;+ cpu1_end: np.float64, s&lt;/font&gt;&lt;/div&gt;&lt;div style=&quot;font-size: 16px;&quot;&gt;&lt;font style=&quot;font-size: 16px;&quot;&gt;+ wall_start: np.float64, s&lt;/font&gt;&lt;/div&gt;&lt;div style=&quot;font-size: 16px;&quot;&gt;&lt;font style=&quot;font-size: 16px;&quot;&gt;+ wall_end: np.float64, s&lt;/font&gt;&lt;/div&gt;&lt;div style=&quot;font-size: 16px;&quot;&gt;&lt;font style=&quot;font-size: 16px;&quot;&gt;+ program: &lt;b style=&quot;&quot;&gt;Program&lt;/b&gt;&lt;/font&gt;&lt;br&gt;&lt;/div&gt;" style="text;strokeColor=none;fillColor=none;align=left;verticalAlign=top;spacingLeft=4;spacingRight=4;overflow=hidden;rotatable=0;points=[[0,0.5],[1,0.5]];portConstraint=eastwest;whiteSpace=wrap;html=1;fontFamily=Titillium Web;" parent="Eo4oD8oEYdF83mtFnDHt-28" vertex="1">
          <mxGeometry y="40" width="200" height="124" as="geometry" />
        </mxCell>
        <mxCell id="Eo4oD8oEYdF83mtFnDHt-30" value="" style="line;strokeWidth=2;fillColor=none;align=left;verticalAlign=middle;spacingTop=-1;spacingLeft=3;spacingRight=3;rotatable=0;labelPosition=right;points=[];portConstraint=eastwest;strokeColor=inherit;fontFamily=Titillium Web;" parent="Eo4oD8oEYdF83mtFnDHt-28" vertex="1">
          <mxGeometry y="164" width="200" height="8" as="geometry" />
        </mxCell>
        <mxCell id="Eo4oD8oEYdF83mtFnDHt-31" value="&lt;font style=&quot;font-size: 16px;&quot;&gt;+ normalize()&lt;/font&gt;" style="text;strokeColor=none;fillColor=none;align=left;verticalAlign=top;spacingLeft=4;spacingRight=4;overflow=hidden;rotatable=0;points=[[0,0.5],[1,0.5]];portConstraint=eastwest;whiteSpace=wrap;html=1;fontFamily=Titillium Web;" parent="Eo4oD8oEYdF83mtFnDHt-28" vertex="1">
          <mxGeometry y="172" width="200" height="34" as="geometry" />
        </mxCell>
        <mxCell id="Eo4oD8oEYdF83mtFnDHt-34" value="" style="endArrow=none;html=1;rounded=0;strokeWidth=2;endFill=0;startArrow=block;startFill=0;" parent="1" edge="1">
          <mxGeometry width="50" height="50" relative="1" as="geometry">
            <mxPoint x="40" y="610" as="sourcePoint" />
            <mxPoint x="110" y="610" as="targetPoint" />
          </mxGeometry>
        </mxCell>
        <mxCell id="Eo4oD8oEYdF83mtFnDHt-35" value="&lt;font style=&quot;font-size: 14px;&quot; face=&quot;Titillium Web&quot;&gt;inheriting from&lt;/font&gt;" style="text;html=1;align=center;verticalAlign=middle;whiteSpace=wrap;rounded=0;" parent="1" vertex="1">
          <mxGeometry x="110" y="600" width="90" height="20" as="geometry" />
        </mxCell>
        <mxCell id="Eo4oD8oEYdF83mtFnDHt-36" value="" style="endArrow=none;html=1;rounded=0;strokeWidth=2;endFill=0;startArrow=diamond;startFill=1;" parent="1" edge="1">
          <mxGeometry width="50" height="50" relative="1" as="geometry">
            <mxPoint x="40" y="630" as="sourcePoint" />
            <mxPoint x="110" y="630" as="targetPoint" />
          </mxGeometry>
        </mxCell>
        <mxCell id="Eo4oD8oEYdF83mtFnDHt-37" value="&lt;font style=&quot;font-size: 14px;&quot; face=&quot;Titillium Web&quot;&gt;contained in&lt;/font&gt;" style="text;html=1;align=center;verticalAlign=middle;whiteSpace=wrap;rounded=0;" parent="1" vertex="1">
          <mxGeometry x="110" y="620" width="80" height="20" as="geometry" />
        </mxCell>
        <mxCell id="O3gvgiHZ3PhE2__OoeL2-5" style="edgeStyle=orthogonalEdgeStyle;rounded=0;orthogonalLoop=1;jettySize=auto;html=1;strokeWidth=2;endArrow=block;endFill=0;" parent="1" source="O3gvgiHZ3PhE2__OoeL2-1" target="Eo4oD8oEYdF83mtFnDHt-28" edge="1">
          <mxGeometry relative="1" as="geometry" />
        </mxCell>
        <mxCell id="O3gvgiHZ3PhE2__OoeL2-1" value="&lt;font color=&quot;#000000&quot; style=&quot;font-size: 20px;&quot;&gt;Simulation&lt;/font&gt;" style="swimlane;fontStyle=1;align=center;verticalAlign=top;childLayout=stackLayout;horizontal=1;startSize=40;horizontalStack=0;resizeParent=1;resizeParentMax=0;resizeLast=0;collapsible=1;marginBottom=0;whiteSpace=wrap;html=1;fillColor=none;fontColor=#ffffff;fontFamily=Titillium Web;strokeWidth=2;" parent="1" vertex="1">
          <mxGeometry x="10" y="220" width="230" height="182" as="geometry">
            <mxRectangle x="65" y="291" width="120" height="40" as="alternateBounds" />
          </mxGeometry>
        </mxCell>
        <mxCell id="O3gvgiHZ3PhE2__OoeL2-2" value="&lt;font style=&quot;font-size: 16px;&quot;&gt;&lt;span style=&quot;color: rgb(0, 0, 0); font-family: &amp;quot;Titillium Web&amp;quot;; font-style: normal; font-variant-ligatures: normal; font-variant-caps: normal; font-weight: 400; letter-spacing: normal; orphans: 2; text-align: left; text-indent: 0px; text-transform: none; widows: 2; word-spacing: 0px; -webkit-text-stroke-width: 0px; background-color: rgb(251, 251, 251); text-decoration-thickness: initial; text-decoration-style: initial; text-decoration-color: initial; float: none; display: inline !important;&quot;&gt;+ model_system:&amp;nbsp;&lt;/span&gt;&lt;span style=&quot;border-color: var(--border-color); color: rgb(0, 0, 0); font-family: &amp;quot;Titillium Web&amp;quot;; font-style: normal; font-variant-ligatures: normal; font-variant-caps: normal; letter-spacing: normal; orphans: 2; text-align: left; text-indent: 0px; text-transform: none; widows: 2; word-spacing: 0px; -webkit-text-stroke-width: 0px; background-color: rgb(251, 251, 251); text-decoration-thickness: initial; text-decoration-style: initial; text-decoration-color: initial;&quot;&gt;&lt;b&gt;ModelSystem&lt;/b&gt;&lt;br&gt;+ model_method:&lt;/span&gt;&lt;/font&gt;&lt;span style=&quot;border-color: var(--border-color); color: rgb(0, 0, 0); font-family: &amp;quot;Titillium Web&amp;quot;; font-style: normal; font-variant-ligatures: normal; font-variant-caps: normal; letter-spacing: normal; orphans: 2; text-align: left; text-indent: 0px; text-transform: none; widows: 2; word-spacing: 0px; -webkit-text-stroke-width: 0px; background-color: rgb(251, 251, 251); text-decoration-thickness: initial; text-decoration-style: initial; text-decoration-color: initial; font-size: 16px;&quot;&gt;&lt;font style=&quot;font-size: 16px;&quot;&gt;&lt;b style=&quot;&quot;&gt;&amp;nbsp;&lt;/b&gt;&lt;span style=&quot;border-color: var(--border-color);&quot;&gt;&lt;b&gt;ModelMethod&lt;/b&gt;&lt;br&gt;+ outputs:&lt;/span&gt;&lt;/font&gt;&lt;b style=&quot;font-weight: bold; border-color: var(--border-color);&quot;&gt;&lt;font style=&quot;font-size: 16px;&quot;&gt;&amp;nbsp;&lt;/font&gt;&lt;b style=&quot;border-color: var(--border-color);&quot;&gt;&lt;font style=&quot;font-size: 16px;&quot;&gt;Outputs&lt;/font&gt;&lt;br style=&quot;border-color: var(--border-color);&quot;&gt;&lt;/b&gt;&lt;/b&gt;&lt;/span&gt;" style="text;strokeColor=none;fillColor=none;align=left;verticalAlign=top;spacingLeft=4;spacingRight=4;overflow=hidden;rotatable=0;points=[[0,0.5],[1,0.5]];portConstraint=eastwest;whiteSpace=wrap;html=1;fontFamily=Titillium Web;" parent="O3gvgiHZ3PhE2__OoeL2-1" vertex="1">
          <mxGeometry y="40" width="230" height="74" as="geometry" />
        </mxCell>
        <mxCell id="O3gvgiHZ3PhE2__OoeL2-3" value="" style="line;strokeWidth=1;fillColor=none;align=left;verticalAlign=middle;spacingTop=-1;spacingLeft=3;spacingRight=3;rotatable=0;labelPosition=right;points=[];portConstraint=eastwest;strokeColor=inherit;fontFamily=Titillium Web;" parent="O3gvgiHZ3PhE2__OoeL2-1" vertex="1">
          <mxGeometry y="114" width="230" height="8" as="geometry" />
        </mxCell>
        <mxCell id="O3gvgiHZ3PhE2__OoeL2-4" value="&lt;div style=&quot;font-size: 16px;&quot;&gt;&lt;font style=&quot;font-size: 16px;&quot;&gt;- set_system_branch_depth()&lt;br&gt;&lt;/font&gt;&lt;/div&gt;&lt;div style=&quot;font-size: 16px;&quot;&gt;&lt;font style=&quot;font-size: 16px;&quot;&gt;+ normalize()&lt;/font&gt;&lt;/div&gt;" style="text;strokeColor=none;fillColor=none;align=left;verticalAlign=top;spacingLeft=4;spacingRight=4;overflow=hidden;rotatable=0;points=[[0,0.5],[1,0.5]];portConstraint=eastwest;whiteSpace=wrap;html=1;fontFamily=Titillium Web;" parent="O3gvgiHZ3PhE2__OoeL2-1" vertex="1">
          <mxGeometry y="122" width="230" height="60" as="geometry" />
        </mxCell>
        <mxCell id="-xa2I-5CzvBbWXcxgvTn-15" value="&lt;font face=&quot;Titillium Web&quot;&gt;outputs&lt;/font&gt;" style="edgeStyle=orthogonalEdgeStyle;rounded=0;orthogonalLoop=1;jettySize=auto;html=1;strokeWidth=2;endArrow=diamond;endFill=1;" parent="1" source="O3gvgiHZ3PhE2__OoeL2-10" target="O3gvgiHZ3PhE2__OoeL2-2" edge="1">
          <mxGeometry relative="1" as="geometry" />
        </mxCell>
        <mxCell id="SJf9l1WOMlyk7xRIwPWy-45" style="edgeStyle=orthogonalEdgeStyle;rounded=0;orthogonalLoop=1;jettySize=auto;html=1;strokeWidth=2;" edge="1" parent="1" source="O3gvgiHZ3PhE2__OoeL2-10" target="-xa2I-5CzvBbWXcxgvTn-5">
          <mxGeometry relative="1" as="geometry">
            <Array as="points">
              <mxPoint x="463" y="280" />
              <mxPoint x="414" y="280" />
            </Array>
          </mxGeometry>
        </mxCell>
        <mxCell id="SJf9l1WOMlyk7xRIwPWy-47" style="edgeStyle=orthogonalEdgeStyle;rounded=0;orthogonalLoop=1;jettySize=auto;html=1;strokeWidth=2;" edge="1" parent="1" source="O3gvgiHZ3PhE2__OoeL2-10" target="-xa2I-5CzvBbWXcxgvTn-1">
          <mxGeometry relative="1" as="geometry">
            <Array as="points">
              <mxPoint x="463" y="280" />
              <mxPoint x="512" y="280" />
            </Array>
          </mxGeometry>
        </mxCell>
        <mxCell id="O3gvgiHZ3PhE2__OoeL2-10" value="&lt;font style=&quot;font-size: 20px;&quot;&gt;Outputs&lt;/font&gt;" style="swimlane;fontStyle=1;align=center;verticalAlign=top;childLayout=stackLayout;horizontal=1;startSize=40;horizontalStack=0;resizeParent=1;resizeParentMax=0;resizeLast=0;collapsible=1;marginBottom=0;whiteSpace=wrap;html=1;fillColor=#009999;fontColor=#ffffff;fontFamily=Titillium Web;strokeWidth=2;" parent="1" vertex="1">
          <mxGeometry x="340" y="300" width="245" height="250" as="geometry">
            <mxRectangle x="360" y="291" width="140" height="40" as="alternateBounds" />
          </mxGeometry>
        </mxCell>
        <mxCell id="O3gvgiHZ3PhE2__OoeL2-11" value="&lt;span style=&quot;font-size: 16px;&quot;&gt;normalize_level = 2&lt;/span&gt;&lt;div&gt;&lt;span style=&quot;font-size: 16px;&quot;&gt;+ model_system_ref: &lt;b&gt;Reference(ModelSystem)&lt;/b&gt;&lt;/span&gt;&lt;/div&gt;&lt;div&gt;&lt;span style=&quot;font-size: 16px;&quot;&gt;+ model_method_ref: &lt;b&gt;Reference(ModelMethod)&lt;/b&gt;&lt;/span&gt;&lt;/div&gt;" style="text;strokeColor=none;fillColor=none;align=left;verticalAlign=top;spacingLeft=4;spacingRight=4;overflow=hidden;rotatable=0;points=[[0,0.5],[1,0.5]];portConstraint=eastwest;whiteSpace=wrap;html=1;fontFamily=Titillium Web;" parent="O3gvgiHZ3PhE2__OoeL2-10" vertex="1">
          <mxGeometry y="40" width="245" height="110" as="geometry" />
        </mxCell>
        <mxCell id="O3gvgiHZ3PhE2__OoeL2-12" value="" style="line;strokeWidth=1;fillColor=none;align=left;verticalAlign=middle;spacingTop=-1;spacingLeft=3;spacingRight=3;rotatable=0;labelPosition=right;points=[];portConstraint=eastwest;strokeColor=inherit;fontFamily=Titillium Web;" parent="O3gvgiHZ3PhE2__OoeL2-10" vertex="1">
          <mxGeometry y="150" width="245" height="8" as="geometry" />
        </mxCell>
        <mxCell id="O3gvgiHZ3PhE2__OoeL2-13" value="&lt;div style=&quot;font-size: 16px;&quot;&gt;&lt;span style=&quot;background-color: initial;&quot;&gt;+ extract_spin_polarized_property()&lt;/span&gt;&lt;/div&gt;&lt;div style=&quot;font-size: 16px;&quot;&gt;&lt;span style=&quot;background-color: initial;&quot;&gt;+ set_model_system_ref()&lt;/span&gt;&lt;/div&gt;&lt;div style=&quot;font-size: 16px;&quot;&gt;&lt;span style=&quot;background-color: initial;&quot;&gt;+ set_model_method_ref()&lt;/span&gt;&lt;/div&gt;&lt;div style=&quot;font-size: 16px;&quot;&gt;&lt;span style=&quot;background-color: initial;&quot;&gt;+ normalize()&lt;/span&gt;&lt;br&gt;&lt;/div&gt;" style="text;strokeColor=none;fillColor=none;align=left;verticalAlign=top;spacingLeft=4;spacingRight=4;overflow=hidden;rotatable=0;points=[[0,0.5],[1,0.5]];portConstraint=eastwest;whiteSpace=wrap;html=1;fontFamily=Titillium Web;" parent="O3gvgiHZ3PhE2__OoeL2-10" vertex="1">
          <mxGeometry y="158" width="245" height="92" as="geometry" />
        </mxCell>
        <mxCell id="-xa2I-5CzvBbWXcxgvTn-16" style="edgeStyle=orthogonalEdgeStyle;rounded=0;orthogonalLoop=1;jettySize=auto;html=1;strokeWidth=2;endArrow=block;endFill=0;" parent="1" source="jLTmovnZ-4I3dYf7ap1G-43" target="O3gvgiHZ3PhE2__OoeL2-10" edge="1">
          <mxGeometry relative="1" as="geometry" />
        </mxCell>
        <mxCell id="jLTmovnZ-4I3dYf7ap1G-43" value="&lt;font style=&quot;font-size: 20px;&quot;&gt;SCFOutputs&lt;/font&gt;" style="swimlane;fontStyle=1;align=center;verticalAlign=top;childLayout=stackLayout;horizontal=1;startSize=40;horizontalStack=0;resizeParent=1;resizeParentMax=0;resizeLast=0;collapsible=1;marginBottom=0;whiteSpace=wrap;html=1;fillColor=#009999;fontColor=#ffffff;fontFamily=Titillium Web;strokeWidth=2;" parent="1" vertex="1">
          <mxGeometry x="340" y="590" width="245" height="150" as="geometry">
            <mxRectangle x="360" y="291" width="140" height="40" as="alternateBounds" />
          </mxGeometry>
        </mxCell>
        <mxCell id="jLTmovnZ-4I3dYf7ap1G-44" value="&lt;span style=&quot;font-size: 16px;&quot;&gt;+ scf_steps: &lt;b&gt;Outputs&lt;/b&gt;&lt;/span&gt;" style="text;strokeColor=none;fillColor=none;align=left;verticalAlign=top;spacingLeft=4;spacingRight=4;overflow=hidden;rotatable=0;points=[[0,0.5],[1,0.5]];portConstraint=eastwest;whiteSpace=wrap;html=1;fontFamily=Titillium Web;" parent="jLTmovnZ-4I3dYf7ap1G-43" vertex="1">
          <mxGeometry y="40" width="245" height="30" as="geometry" />
        </mxCell>
        <mxCell id="jLTmovnZ-4I3dYf7ap1G-45" value="" style="line;strokeWidth=1;fillColor=none;align=left;verticalAlign=middle;spacingTop=-1;spacingLeft=3;spacingRight=3;rotatable=0;labelPosition=right;points=[];portConstraint=eastwest;strokeColor=inherit;fontFamily=Titillium Web;" parent="jLTmovnZ-4I3dYf7ap1G-43" vertex="1">
          <mxGeometry y="70" width="245" height="8" as="geometry" />
        </mxCell>
        <mxCell id="jLTmovnZ-4I3dYf7ap1G-46" value="&lt;div style=&quot;font-size: 16px;&quot;&gt;&lt;span style=&quot;background-color: initial;&quot;&gt;+ get_last_scf_steps_value()&lt;/span&gt;&lt;/div&gt;&lt;div style=&quot;font-size: 16px;&quot;&gt;&lt;span style=&quot;background-color: initial;&quot;&gt;+ resolve_is_scf_converged()&lt;/span&gt;&lt;/div&gt;&lt;div style=&quot;font-size: 16px;&quot;&gt;&lt;span style=&quot;background-color: initial;&quot;&gt;+ normalize()&lt;/span&gt;&lt;br&gt;&lt;/div&gt;" style="text;strokeColor=none;fillColor=none;align=left;verticalAlign=top;spacingLeft=4;spacingRight=4;overflow=hidden;rotatable=0;points=[[0,0.5],[1,0.5]];portConstraint=eastwest;whiteSpace=wrap;html=1;fontFamily=Titillium Web;" parent="jLTmovnZ-4I3dYf7ap1G-43" vertex="1">
          <mxGeometry y="78" width="245" height="72" as="geometry" />
        </mxCell>
        <mxCell id="-xa2I-5CzvBbWXcxgvTn-13" value="&lt;font face=&quot;Titillium Web&quot;&gt;model_method&lt;/font&gt;" style="edgeStyle=orthogonalEdgeStyle;rounded=0;orthogonalLoop=1;jettySize=auto;html=1;endArrow=diamond;endFill=1;strokeWidth=2;exitX=0;exitY=0.5;exitDx=0;exitDy=0;" parent="1" source="-xa2I-5CzvBbWXcxgvTn-1" target="O3gvgiHZ3PhE2__OoeL2-2" edge="1">
          <mxGeometry relative="1" as="geometry">
            <Array as="points">
              <mxPoint x="290" y="140" />
              <mxPoint x="290" y="297" />
            </Array>
          </mxGeometry>
        </mxCell>
        <mxCell id="-xa2I-5CzvBbWXcxgvTn-1" value="&lt;font style=&quot;font-size: 20px;&quot;&gt;ModelMethod&lt;/font&gt;" style="swimlane;fontStyle=1;align=center;verticalAlign=top;childLayout=stackLayout;horizontal=1;startSize=40;horizontalStack=0;resizeParent=1;resizeParentMax=0;resizeLast=0;collapsible=1;marginBottom=0;whiteSpace=wrap;html=1;fillColor=#009999;fontColor=#ffffff;fontFamily=Titillium Web;strokeWidth=2;" parent="1" vertex="1" collapsed="1">
          <mxGeometry x="438" y="120" width="147" height="40" as="geometry">
            <mxRectangle x="303" y="110" width="245" height="120" as="alternateBounds" />
          </mxGeometry>
        </mxCell>
        <mxCell id="-xa2I-5CzvBbWXcxgvTn-2" value="&lt;font style=&quot;font-size: 16px;&quot;&gt;&lt;span style=&quot;color: rgb(0, 0, 0); font-family: &amp;quot;Titillium Web&amp;quot;; font-style: normal; font-variant-ligatures: normal; font-variant-caps: normal; font-weight: 400; letter-spacing: normal; orphans: 2; text-align: left; text-indent: 0px; text-transform: none; widows: 2; word-spacing: 0px; -webkit-text-stroke-width: 0px; background-color: rgb(251, 251, 251); text-decoration-thickness: initial; text-decoration-style: initial; text-decoration-color: initial; float: none; display: inline !important;&quot;&gt;+ contributions: &lt;/span&gt;&lt;span style=&quot;color: rgb(0, 0, 0); font-family: &amp;quot;Titillium Web&amp;quot;; font-style: normal; font-variant-ligatures: normal; font-variant-caps: normal; letter-spacing: normal; orphans: 2; text-align: left; text-indent: 0px; text-transform: none; widows: 2; word-spacing: 0px; -webkit-text-stroke-width: 0px; background-color: rgb(251, 251, 251); text-decoration-thickness: initial; text-decoration-style: initial; text-decoration-color: initial; float: none; display: inline !important;&quot;&gt;&lt;b&gt;BaseModelMethod&lt;/b&gt;&lt;/span&gt;&lt;/font&gt;&lt;span style=&quot;border-color: var(--border-color); color: rgb(0, 0, 0); font-family: &amp;quot;Titillium Web&amp;quot;; font-style: normal; font-variant-ligatures: normal; font-variant-caps: normal; letter-spacing: normal; orphans: 2; text-align: left; text-indent: 0px; text-transform: none; widows: 2; word-spacing: 0px; -webkit-text-stroke-width: 0px; background-color: rgb(251, 251, 251); text-decoration-thickness: initial; text-decoration-style: initial; text-decoration-color: initial; font-size: 16px;&quot;&gt;&lt;b style=&quot;font-weight: bold; border-color: var(--border-color);&quot;&gt;&lt;b style=&quot;border-color: var(--border-color);&quot;&gt;&lt;br style=&quot;border-color: var(--border-color);&quot;&gt;&lt;/b&gt;&lt;/b&gt;&lt;/span&gt;" style="text;strokeColor=none;fillColor=none;align=left;verticalAlign=top;spacingLeft=4;spacingRight=4;overflow=hidden;rotatable=0;points=[[0,0.5],[1,0.5]];portConstraint=eastwest;whiteSpace=wrap;html=1;fontFamily=Titillium Web;" parent="-xa2I-5CzvBbWXcxgvTn-1" vertex="1">
          <mxGeometry y="40" width="245" height="30" as="geometry" />
        </mxCell>
        <mxCell id="-xa2I-5CzvBbWXcxgvTn-3" value="" style="line;strokeWidth=1;fillColor=none;align=left;verticalAlign=middle;spacingTop=-1;spacingLeft=3;spacingRight=3;rotatable=0;labelPosition=right;points=[];portConstraint=eastwest;strokeColor=inherit;fontFamily=Titillium Web;" parent="-xa2I-5CzvBbWXcxgvTn-1" vertex="1">
          <mxGeometry y="70" width="245" height="8" as="geometry" />
        </mxCell>
        <mxCell id="-xa2I-5CzvBbWXcxgvTn-4" value="&lt;div style=&quot;font-size: 16px;&quot;&gt;&lt;span style=&quot;background-color: initial;&quot;&gt;+ normalize()&lt;/span&gt;&lt;br&gt;&lt;/div&gt;" style="text;strokeColor=none;fillColor=none;align=left;verticalAlign=top;spacingLeft=4;spacingRight=4;overflow=hidden;rotatable=0;points=[[0,0.5],[1,0.5]];portConstraint=eastwest;whiteSpace=wrap;html=1;fontFamily=Titillium Web;" parent="-xa2I-5CzvBbWXcxgvTn-1" vertex="1">
          <mxGeometry y="78" width="245" height="42" as="geometry" />
        </mxCell>
        <mxCell id="-xa2I-5CzvBbWXcxgvTn-14" value="&lt;font face=&quot;Titillium Web&quot;&gt;model_system&lt;/font&gt;" style="edgeStyle=orthogonalEdgeStyle;rounded=0;orthogonalLoop=1;jettySize=auto;html=1;endArrow=diamond;endFill=1;strokeWidth=2;exitX=0;exitY=0.5;exitDx=0;exitDy=0;" parent="1" source="-xa2I-5CzvBbWXcxgvTn-5" target="O3gvgiHZ3PhE2__OoeL2-2" edge="1">
          <mxGeometry relative="1" as="geometry" />
        </mxCell>
        <mxCell id="-xa2I-5CzvBbWXcxgvTn-5" value="&lt;font style=&quot;font-size: 20px;&quot;&gt;ModelSystem&lt;/font&gt;" style="swimlane;fontStyle=1;align=center;verticalAlign=top;childLayout=stackLayout;horizontal=1;startSize=40;horizontalStack=0;resizeParent=1;resizeParentMax=0;resizeLast=0;collapsible=1;marginBottom=0;whiteSpace=wrap;html=1;fillColor=#009999;fontColor=#ffffff;fontFamily=Titillium Web;strokeWidth=2;" parent="1" vertex="1" collapsed="1">
          <mxGeometry x="340" y="210" width="147" height="40" as="geometry">
            <mxRectangle x="303" y="110" width="245" height="120" as="alternateBounds" />
          </mxGeometry>
        </mxCell>
        <mxCell id="-xa2I-5CzvBbWXcxgvTn-6" value="&lt;font style=&quot;font-size: 16px;&quot;&gt;&lt;span style=&quot;color: rgb(0, 0, 0); font-family: &amp;quot;Titillium Web&amp;quot;; font-style: normal; font-variant-ligatures: normal; font-variant-caps: normal; font-weight: 400; letter-spacing: normal; orphans: 2; text-align: left; text-indent: 0px; text-transform: none; widows: 2; word-spacing: 0px; -webkit-text-stroke-width: 0px; background-color: rgb(251, 251, 251); text-decoration-thickness: initial; text-decoration-style: initial; text-decoration-color: initial; float: none; display: inline !important;&quot;&gt;+ contributions: &lt;/span&gt;&lt;span style=&quot;color: rgb(0, 0, 0); font-family: &amp;quot;Titillium Web&amp;quot;; font-style: normal; font-variant-ligatures: normal; font-variant-caps: normal; letter-spacing: normal; orphans: 2; text-align: left; text-indent: 0px; text-transform: none; widows: 2; word-spacing: 0px; -webkit-text-stroke-width: 0px; background-color: rgb(251, 251, 251); text-decoration-thickness: initial; text-decoration-style: initial; text-decoration-color: initial; float: none; display: inline !important;&quot;&gt;&lt;b&gt;BaseModelMethod&lt;/b&gt;&lt;/span&gt;&lt;/font&gt;&lt;span style=&quot;border-color: var(--border-color); color: rgb(0, 0, 0); font-family: &amp;quot;Titillium Web&amp;quot;; font-style: normal; font-variant-ligatures: normal; font-variant-caps: normal; letter-spacing: normal; orphans: 2; text-align: left; text-indent: 0px; text-transform: none; widows: 2; word-spacing: 0px; -webkit-text-stroke-width: 0px; background-color: rgb(251, 251, 251); text-decoration-thickness: initial; text-decoration-style: initial; text-decoration-color: initial; font-size: 16px;&quot;&gt;&lt;b style=&quot;font-weight: bold; border-color: var(--border-color);&quot;&gt;&lt;b style=&quot;border-color: var(--border-color);&quot;&gt;&lt;br style=&quot;border-color: var(--border-color);&quot;&gt;&lt;/b&gt;&lt;/b&gt;&lt;/span&gt;" style="text;strokeColor=none;fillColor=none;align=left;verticalAlign=top;spacingLeft=4;spacingRight=4;overflow=hidden;rotatable=0;points=[[0,0.5],[1,0.5]];portConstraint=eastwest;whiteSpace=wrap;html=1;fontFamily=Titillium Web;" parent="-xa2I-5CzvBbWXcxgvTn-5" vertex="1">
          <mxGeometry y="40" width="245" height="30" as="geometry" />
        </mxCell>
        <mxCell id="-xa2I-5CzvBbWXcxgvTn-7" value="" style="line;strokeWidth=1;fillColor=none;align=left;verticalAlign=middle;spacingTop=-1;spacingLeft=3;spacingRight=3;rotatable=0;labelPosition=right;points=[];portConstraint=eastwest;strokeColor=inherit;fontFamily=Titillium Web;" parent="-xa2I-5CzvBbWXcxgvTn-5" vertex="1">
          <mxGeometry y="70" width="245" height="8" as="geometry" />
        </mxCell>
        <mxCell id="-xa2I-5CzvBbWXcxgvTn-8" value="&lt;div style=&quot;font-size: 16px;&quot;&gt;&lt;span style=&quot;background-color: initial;&quot;&gt;+ normalize()&lt;/span&gt;&lt;br&gt;&lt;/div&gt;" style="text;strokeColor=none;fillColor=none;align=left;verticalAlign=top;spacingLeft=4;spacingRight=4;overflow=hidden;rotatable=0;points=[[0,0.5],[1,0.5]];portConstraint=eastwest;whiteSpace=wrap;html=1;fontFamily=Titillium Web;" parent="-xa2I-5CzvBbWXcxgvTn-5" vertex="1">
          <mxGeometry y="78" width="245" height="42" as="geometry" />
        </mxCell>
        <mxCell id="SJf9l1WOMlyk7xRIwPWy-10" style="edgeStyle=orthogonalEdgeStyle;rounded=0;orthogonalLoop=1;jettySize=auto;html=1;strokeWidth=2;endArrow=block;endFill=0;" edge="1" parent="1" source="-xa2I-5CzvBbWXcxgvTn-17" target="SJf9l1WOMlyk7xRIwPWy-1">
          <mxGeometry relative="1" as="geometry" />
        </mxCell>
        <mxCell id="SJf9l1WOMlyk7xRIwPWy-33" style="edgeStyle=orthogonalEdgeStyle;rounded=0;orthogonalLoop=1;jettySize=auto;html=1;strokeWidth=2;endArrow=diamond;endFill=1;" edge="1" parent="1" source="-xa2I-5CzvBbWXcxgvTn-17" target="O3gvgiHZ3PhE2__OoeL2-10">
          <mxGeometry relative="1" as="geometry">
            <Array as="points">
              <mxPoint x="630" y="100" />
              <mxPoint x="630" y="425" />
            </Array>
          </mxGeometry>
        </mxCell>
        <mxCell id="-xa2I-5CzvBbWXcxgvTn-17" value="&lt;font style=&quot;font-size: 20px;&quot;&gt;FermiLevel&lt;/font&gt;" style="swimlane;fontStyle=1;align=center;verticalAlign=top;childLayout=stackLayout;horizontal=1;startSize=40;horizontalStack=0;resizeParent=1;resizeParentMax=0;resizeLast=0;collapsible=1;marginBottom=0;whiteSpace=wrap;html=1;fillColor=#009999;fontColor=#ffffff;fontFamily=Titillium Web;strokeWidth=2;" parent="1" vertex="1" collapsed="1">
          <mxGeometry x="680" y="80" width="240" height="40" as="geometry">
            <mxRectangle x="670" y="270" width="245" height="250" as="alternateBounds" />
          </mxGeometry>
        </mxCell>
        <mxCell id="-xa2I-5CzvBbWXcxgvTn-18" value="&lt;br&gt;&lt;div&gt;&lt;br&gt;&lt;/div&gt;" style="text;strokeColor=none;fillColor=none;align=left;verticalAlign=top;spacingLeft=4;spacingRight=4;overflow=hidden;rotatable=0;points=[[0,0.5],[1,0.5]];portConstraint=eastwest;whiteSpace=wrap;html=1;fontFamily=Titillium Web;" parent="-xa2I-5CzvBbWXcxgvTn-17" vertex="1">
          <mxGeometry y="40" width="245" height="110" as="geometry" />
        </mxCell>
        <mxCell id="-xa2I-5CzvBbWXcxgvTn-19" value="" style="line;strokeWidth=1;fillColor=none;align=left;verticalAlign=middle;spacingTop=-1;spacingLeft=3;spacingRight=3;rotatable=0;labelPosition=right;points=[];portConstraint=eastwest;strokeColor=inherit;fontFamily=Titillium Web;" parent="-xa2I-5CzvBbWXcxgvTn-17" vertex="1">
          <mxGeometry y="150" width="245" height="8" as="geometry" />
        </mxCell>
        <mxCell id="-xa2I-5CzvBbWXcxgvTn-20" value="&lt;div style=&quot;font-size: 16px;&quot;&gt;&lt;span style=&quot;background-color: initial;&quot;&gt;+ normalize()&lt;/span&gt;&lt;br&gt;&lt;/div&gt;" style="text;strokeColor=none;fillColor=none;align=left;verticalAlign=top;spacingLeft=4;spacingRight=4;overflow=hidden;rotatable=0;points=[[0,0.5],[1,0.5]];portConstraint=eastwest;whiteSpace=wrap;html=1;fontFamily=Titillium Web;" parent="-xa2I-5CzvBbWXcxgvTn-17" vertex="1">
          <mxGeometry y="158" width="245" height="92" as="geometry" />
        </mxCell>
        <mxCell id="SJf9l1WOMlyk7xRIwPWy-11" style="edgeStyle=orthogonalEdgeStyle;rounded=0;orthogonalLoop=1;jettySize=auto;html=1;strokeWidth=2;endArrow=block;endFill=0;" edge="1" parent="1" source="-xa2I-5CzvBbWXcxgvTn-21" target="SJf9l1WOMlyk7xRIwPWy-1">
          <mxGeometry relative="1" as="geometry" />
        </mxCell>
        <mxCell id="SJf9l1WOMlyk7xRIwPWy-34" value="" style="edgeStyle=orthogonalEdgeStyle;rounded=0;orthogonalLoop=1;jettySize=auto;html=1;endArrow=diamond;endFill=1;strokeWidth=2;" edge="1" parent="1" source="-xa2I-5CzvBbWXcxgvTn-21" target="O3gvgiHZ3PhE2__OoeL2-10">
          <mxGeometry relative="1" as="geometry">
            <Array as="points">
              <mxPoint x="630" y="162" />
              <mxPoint x="630" y="425" />
            </Array>
          </mxGeometry>
        </mxCell>
        <mxCell id="-xa2I-5CzvBbWXcxgvTn-21" value="&lt;font style=&quot;font-size: 20px;&quot;&gt;ChemicalPotential&lt;/font&gt;" style="swimlane;fontStyle=1;align=center;verticalAlign=top;childLayout=stackLayout;horizontal=1;startSize=40;horizontalStack=0;resizeParent=1;resizeParentMax=0;resizeLast=0;collapsible=1;marginBottom=0;whiteSpace=wrap;html=1;fillColor=#009999;fontColor=#ffffff;fontFamily=Titillium Web;strokeWidth=2;" parent="1" vertex="1" collapsed="1">
          <mxGeometry x="680" y="142" width="240" height="40" as="geometry">
            <mxRectangle x="670" y="270" width="245" height="250" as="alternateBounds" />
          </mxGeometry>
        </mxCell>
        <mxCell id="-xa2I-5CzvBbWXcxgvTn-22" value="&lt;br&gt;&lt;div&gt;&lt;br&gt;&lt;/div&gt;" style="text;strokeColor=none;fillColor=none;align=left;verticalAlign=top;spacingLeft=4;spacingRight=4;overflow=hidden;rotatable=0;points=[[0,0.5],[1,0.5]];portConstraint=eastwest;whiteSpace=wrap;html=1;fontFamily=Titillium Web;" parent="-xa2I-5CzvBbWXcxgvTn-21" vertex="1">
          <mxGeometry y="40" width="245" height="110" as="geometry" />
        </mxCell>
        <mxCell id="-xa2I-5CzvBbWXcxgvTn-23" value="" style="line;strokeWidth=1;fillColor=none;align=left;verticalAlign=middle;spacingTop=-1;spacingLeft=3;spacingRight=3;rotatable=0;labelPosition=right;points=[];portConstraint=eastwest;strokeColor=inherit;fontFamily=Titillium Web;" parent="-xa2I-5CzvBbWXcxgvTn-21" vertex="1">
          <mxGeometry y="150" width="245" height="8" as="geometry" />
        </mxCell>
        <mxCell id="-xa2I-5CzvBbWXcxgvTn-24" value="&lt;div style=&quot;font-size: 16px;&quot;&gt;&lt;span style=&quot;background-color: initial;&quot;&gt;+ normalize()&lt;/span&gt;&lt;br&gt;&lt;/div&gt;" style="text;strokeColor=none;fillColor=none;align=left;verticalAlign=top;spacingLeft=4;spacingRight=4;overflow=hidden;rotatable=0;points=[[0,0.5],[1,0.5]];portConstraint=eastwest;whiteSpace=wrap;html=1;fontFamily=Titillium Web;" parent="-xa2I-5CzvBbWXcxgvTn-21" vertex="1">
          <mxGeometry y="158" width="245" height="92" as="geometry" />
        </mxCell>
        <mxCell id="SJf9l1WOMlyk7xRIwPWy-12" style="edgeStyle=orthogonalEdgeStyle;rounded=0;orthogonalLoop=1;jettySize=auto;html=1;strokeWidth=2;endArrow=block;endFill=0;" edge="1" parent="1" source="-xa2I-5CzvBbWXcxgvTn-25" target="SJf9l1WOMlyk7xRIwPWy-1">
          <mxGeometry relative="1" as="geometry" />
        </mxCell>
        <mxCell id="SJf9l1WOMlyk7xRIwPWy-35" style="edgeStyle=orthogonalEdgeStyle;rounded=0;orthogonalLoop=1;jettySize=auto;html=1;strokeWidth=2;endArrow=diamond;endFill=1;" edge="1" parent="1" source="-xa2I-5CzvBbWXcxgvTn-25" target="O3gvgiHZ3PhE2__OoeL2-10">
          <mxGeometry relative="1" as="geometry">
            <Array as="points">
              <mxPoint x="630" y="230" />
              <mxPoint x="630" y="425" />
            </Array>
          </mxGeometry>
        </mxCell>
        <mxCell id="-xa2I-5CzvBbWXcxgvTn-25" value="&lt;font style=&quot;font-size: 20px;&quot;&gt;CrystalFieldSplitting&lt;/font&gt;" style="swimlane;fontStyle=1;align=center;verticalAlign=top;childLayout=stackLayout;horizontal=1;startSize=40;horizontalStack=0;resizeParent=1;resizeParentMax=0;resizeLast=0;collapsible=1;marginBottom=0;whiteSpace=wrap;html=1;fillColor=#009999;fontColor=#ffffff;fontFamily=Titillium Web;strokeWidth=2;" parent="1" vertex="1" collapsed="1">
          <mxGeometry x="680" y="210" width="240" height="40" as="geometry">
            <mxRectangle x="670" y="270" width="245" height="250" as="alternateBounds" />
          </mxGeometry>
        </mxCell>
        <mxCell id="-xa2I-5CzvBbWXcxgvTn-26" value="&lt;br&gt;&lt;div&gt;&lt;br&gt;&lt;/div&gt;" style="text;strokeColor=none;fillColor=none;align=left;verticalAlign=top;spacingLeft=4;spacingRight=4;overflow=hidden;rotatable=0;points=[[0,0.5],[1,0.5]];portConstraint=eastwest;whiteSpace=wrap;html=1;fontFamily=Titillium Web;" parent="-xa2I-5CzvBbWXcxgvTn-25" vertex="1">
          <mxGeometry y="40" width="245" height="110" as="geometry" />
        </mxCell>
        <mxCell id="-xa2I-5CzvBbWXcxgvTn-27" value="" style="line;strokeWidth=1;fillColor=none;align=left;verticalAlign=middle;spacingTop=-1;spacingLeft=3;spacingRight=3;rotatable=0;labelPosition=right;points=[];portConstraint=eastwest;strokeColor=inherit;fontFamily=Titillium Web;" parent="-xa2I-5CzvBbWXcxgvTn-25" vertex="1">
          <mxGeometry y="150" width="245" height="8" as="geometry" />
        </mxCell>
        <mxCell id="-xa2I-5CzvBbWXcxgvTn-28" value="&lt;div style=&quot;font-size: 16px;&quot;&gt;&lt;span style=&quot;background-color: initial;&quot;&gt;+ normalize()&lt;/span&gt;&lt;br&gt;&lt;/div&gt;" style="text;strokeColor=none;fillColor=none;align=left;verticalAlign=top;spacingLeft=4;spacingRight=4;overflow=hidden;rotatable=0;points=[[0,0.5],[1,0.5]];portConstraint=eastwest;whiteSpace=wrap;html=1;fontFamily=Titillium Web;" parent="-xa2I-5CzvBbWXcxgvTn-25" vertex="1">
          <mxGeometry y="158" width="245" height="92" as="geometry" />
        </mxCell>
        <mxCell id="SJf9l1WOMlyk7xRIwPWy-13" style="edgeStyle=orthogonalEdgeStyle;rounded=0;orthogonalLoop=1;jettySize=auto;html=1;strokeWidth=2;endArrow=block;endFill=0;" edge="1" parent="1" source="-xa2I-5CzvBbWXcxgvTn-29" target="SJf9l1WOMlyk7xRIwPWy-1">
          <mxGeometry relative="1" as="geometry" />
        </mxCell>
        <mxCell id="SJf9l1WOMlyk7xRIwPWy-36" style="edgeStyle=orthogonalEdgeStyle;rounded=0;orthogonalLoop=1;jettySize=auto;html=1;endArrow=diamond;endFill=1;strokeWidth=2;" edge="1" parent="1" source="-xa2I-5CzvBbWXcxgvTn-29" target="O3gvgiHZ3PhE2__OoeL2-10">
          <mxGeometry relative="1" as="geometry">
            <Array as="points">
              <mxPoint x="630" y="300" />
              <mxPoint x="630" y="425" />
            </Array>
          </mxGeometry>
        </mxCell>
        <mxCell id="-xa2I-5CzvBbWXcxgvTn-29" value="&lt;font style=&quot;font-size: 20px;&quot;&gt;HoppingMatrix&lt;/font&gt;" style="swimlane;fontStyle=1;align=center;verticalAlign=top;childLayout=stackLayout;horizontal=1;startSize=40;horizontalStack=0;resizeParent=1;resizeParentMax=0;resizeLast=0;collapsible=1;marginBottom=0;whiteSpace=wrap;html=1;fillColor=#009999;fontColor=#ffffff;fontFamily=Titillium Web;strokeWidth=2;" parent="1" vertex="1" collapsed="1">
          <mxGeometry x="680" y="280" width="240" height="40" as="geometry">
            <mxRectangle x="670" y="270" width="245" height="250" as="alternateBounds" />
          </mxGeometry>
        </mxCell>
        <mxCell id="-xa2I-5CzvBbWXcxgvTn-30" value="&lt;br&gt;&lt;div&gt;&lt;br&gt;&lt;/div&gt;" style="text;strokeColor=none;fillColor=none;align=left;verticalAlign=top;spacingLeft=4;spacingRight=4;overflow=hidden;rotatable=0;points=[[0,0.5],[1,0.5]];portConstraint=eastwest;whiteSpace=wrap;html=1;fontFamily=Titillium Web;" parent="-xa2I-5CzvBbWXcxgvTn-29" vertex="1">
          <mxGeometry y="40" width="245" height="110" as="geometry" />
        </mxCell>
        <mxCell id="-xa2I-5CzvBbWXcxgvTn-31" value="" style="line;strokeWidth=1;fillColor=none;align=left;verticalAlign=middle;spacingTop=-1;spacingLeft=3;spacingRight=3;rotatable=0;labelPosition=right;points=[];portConstraint=eastwest;strokeColor=inherit;fontFamily=Titillium Web;" parent="-xa2I-5CzvBbWXcxgvTn-29" vertex="1">
          <mxGeometry y="150" width="245" height="8" as="geometry" />
        </mxCell>
        <mxCell id="-xa2I-5CzvBbWXcxgvTn-32" value="&lt;div style=&quot;font-size: 16px;&quot;&gt;&lt;span style=&quot;background-color: initial;&quot;&gt;+ normalize()&lt;/span&gt;&lt;br&gt;&lt;/div&gt;" style="text;strokeColor=none;fillColor=none;align=left;verticalAlign=top;spacingLeft=4;spacingRight=4;overflow=hidden;rotatable=0;points=[[0,0.5],[1,0.5]];portConstraint=eastwest;whiteSpace=wrap;html=1;fontFamily=Titillium Web;" parent="-xa2I-5CzvBbWXcxgvTn-29" vertex="1">
          <mxGeometry y="158" width="245" height="92" as="geometry" />
        </mxCell>
        <mxCell id="SJf9l1WOMlyk7xRIwPWy-14" style="edgeStyle=orthogonalEdgeStyle;rounded=0;orthogonalLoop=1;jettySize=auto;html=1;strokeWidth=2;endArrow=block;endFill=0;" edge="1" parent="1" source="-xa2I-5CzvBbWXcxgvTn-33" target="SJf9l1WOMlyk7xRIwPWy-1">
          <mxGeometry relative="1" as="geometry" />
        </mxCell>
        <mxCell id="SJf9l1WOMlyk7xRIwPWy-37" style="edgeStyle=orthogonalEdgeStyle;rounded=0;orthogonalLoop=1;jettySize=auto;html=1;endArrow=diamond;endFill=1;strokeWidth=2;" edge="1" parent="1" source="-xa2I-5CzvBbWXcxgvTn-33" target="O3gvgiHZ3PhE2__OoeL2-10">
          <mxGeometry relative="1" as="geometry">
            <Array as="points">
              <mxPoint x="630" y="370" />
              <mxPoint x="630" y="425" />
            </Array>
          </mxGeometry>
        </mxCell>
        <mxCell id="-xa2I-5CzvBbWXcxgvTn-33" value="&lt;font style=&quot;font-size: 20px;&quot;&gt;ElectronicEigenvalues&lt;/font&gt;" style="swimlane;fontStyle=1;align=center;verticalAlign=top;childLayout=stackLayout;horizontal=1;startSize=40;horizontalStack=0;resizeParent=1;resizeParentMax=0;resizeLast=0;collapsible=1;marginBottom=0;whiteSpace=wrap;html=1;fillColor=#009999;fontColor=#ffffff;fontFamily=Titillium Web;strokeWidth=2;" parent="1" vertex="1" collapsed="1">
          <mxGeometry x="680" y="350" width="240" height="40" as="geometry">
            <mxRectangle x="670" y="270" width="245" height="250" as="alternateBounds" />
          </mxGeometry>
        </mxCell>
        <mxCell id="-xa2I-5CzvBbWXcxgvTn-34" value="&lt;br&gt;&lt;div&gt;&lt;br&gt;&lt;/div&gt;" style="text;strokeColor=none;fillColor=none;align=left;verticalAlign=top;spacingLeft=4;spacingRight=4;overflow=hidden;rotatable=0;points=[[0,0.5],[1,0.5]];portConstraint=eastwest;whiteSpace=wrap;html=1;fontFamily=Titillium Web;" parent="-xa2I-5CzvBbWXcxgvTn-33" vertex="1">
          <mxGeometry y="40" width="245" height="110" as="geometry" />
        </mxCell>
        <mxCell id="-xa2I-5CzvBbWXcxgvTn-35" value="" style="line;strokeWidth=1;fillColor=none;align=left;verticalAlign=middle;spacingTop=-1;spacingLeft=3;spacingRight=3;rotatable=0;labelPosition=right;points=[];portConstraint=eastwest;strokeColor=inherit;fontFamily=Titillium Web;" parent="-xa2I-5CzvBbWXcxgvTn-33" vertex="1">
          <mxGeometry y="150" width="245" height="8" as="geometry" />
        </mxCell>
        <mxCell id="-xa2I-5CzvBbWXcxgvTn-36" value="&lt;div style=&quot;font-size: 16px;&quot;&gt;&lt;span style=&quot;background-color: initial;&quot;&gt;+ normalize()&lt;/span&gt;&lt;br&gt;&lt;/div&gt;" style="text;strokeColor=none;fillColor=none;align=left;verticalAlign=top;spacingLeft=4;spacingRight=4;overflow=hidden;rotatable=0;points=[[0,0.5],[1,0.5]];portConstraint=eastwest;whiteSpace=wrap;html=1;fontFamily=Titillium Web;" parent="-xa2I-5CzvBbWXcxgvTn-33" vertex="1">
          <mxGeometry y="158" width="245" height="92" as="geometry" />
        </mxCell>
        <mxCell id="SJf9l1WOMlyk7xRIwPWy-15" style="edgeStyle=orthogonalEdgeStyle;rounded=0;orthogonalLoop=1;jettySize=auto;html=1;strokeWidth=2;endArrow=block;endFill=0;" edge="1" parent="1" source="-xa2I-5CzvBbWXcxgvTn-37" target="SJf9l1WOMlyk7xRIwPWy-1">
          <mxGeometry relative="1" as="geometry" />
        </mxCell>
        <mxCell id="SJf9l1WOMlyk7xRIwPWy-38" style="edgeStyle=orthogonalEdgeStyle;rounded=0;orthogonalLoop=1;jettySize=auto;html=1;endArrow=diamond;endFill=1;strokeWidth=2;" edge="1" parent="1" source="-xa2I-5CzvBbWXcxgvTn-37" target="O3gvgiHZ3PhE2__OoeL2-10">
          <mxGeometry relative="1" as="geometry">
            <Array as="points">
              <mxPoint x="630" y="440" />
              <mxPoint x="630" y="425" />
            </Array>
          </mxGeometry>
        </mxCell>
        <mxCell id="-xa2I-5CzvBbWXcxgvTn-37" value="&lt;font style=&quot;font-size: 20px;&quot;&gt;ElectronicBandGap&lt;/font&gt;" style="swimlane;fontStyle=1;align=center;verticalAlign=top;childLayout=stackLayout;horizontal=1;startSize=40;horizontalStack=0;resizeParent=1;resizeParentMax=0;resizeLast=0;collapsible=1;marginBottom=0;whiteSpace=wrap;html=1;fillColor=#009999;fontColor=#ffffff;fontFamily=Titillium Web;strokeWidth=2;" parent="1" vertex="1" collapsed="1">
          <mxGeometry x="680" y="420" width="240" height="40" as="geometry">
            <mxRectangle x="670" y="270" width="245" height="250" as="alternateBounds" />
          </mxGeometry>
        </mxCell>
        <mxCell id="-xa2I-5CzvBbWXcxgvTn-38" value="&lt;br&gt;&lt;div&gt;&lt;br&gt;&lt;/div&gt;" style="text;strokeColor=none;fillColor=none;align=left;verticalAlign=top;spacingLeft=4;spacingRight=4;overflow=hidden;rotatable=0;points=[[0,0.5],[1,0.5]];portConstraint=eastwest;whiteSpace=wrap;html=1;fontFamily=Titillium Web;" parent="-xa2I-5CzvBbWXcxgvTn-37" vertex="1">
          <mxGeometry y="40" width="245" height="110" as="geometry" />
        </mxCell>
        <mxCell id="-xa2I-5CzvBbWXcxgvTn-39" value="" style="line;strokeWidth=1;fillColor=none;align=left;verticalAlign=middle;spacingTop=-1;spacingLeft=3;spacingRight=3;rotatable=0;labelPosition=right;points=[];portConstraint=eastwest;strokeColor=inherit;fontFamily=Titillium Web;" parent="-xa2I-5CzvBbWXcxgvTn-37" vertex="1">
          <mxGeometry y="150" width="245" height="8" as="geometry" />
        </mxCell>
        <mxCell id="-xa2I-5CzvBbWXcxgvTn-40" value="&lt;div style=&quot;font-size: 16px;&quot;&gt;&lt;span style=&quot;background-color: initial;&quot;&gt;+ normalize()&lt;/span&gt;&lt;br&gt;&lt;/div&gt;" style="text;strokeColor=none;fillColor=none;align=left;verticalAlign=top;spacingLeft=4;spacingRight=4;overflow=hidden;rotatable=0;points=[[0,0.5],[1,0.5]];portConstraint=eastwest;whiteSpace=wrap;html=1;fontFamily=Titillium Web;" parent="-xa2I-5CzvBbWXcxgvTn-37" vertex="1">
          <mxGeometry y="158" width="245" height="92" as="geometry" />
        </mxCell>
        <mxCell id="SJf9l1WOMlyk7xRIwPWy-16" style="edgeStyle=orthogonalEdgeStyle;rounded=0;orthogonalLoop=1;jettySize=auto;html=1;strokeWidth=2;endArrow=block;endFill=0;" edge="1" parent="1" source="-xa2I-5CzvBbWXcxgvTn-41" target="SJf9l1WOMlyk7xRIwPWy-1">
          <mxGeometry relative="1" as="geometry">
            <Array as="points">
              <mxPoint x="980" y="510" />
              <mxPoint x="980" y="210" />
            </Array>
          </mxGeometry>
        </mxCell>
        <mxCell id="SJf9l1WOMlyk7xRIwPWy-39" style="edgeStyle=orthogonalEdgeStyle;rounded=0;orthogonalLoop=1;jettySize=auto;html=1;endArrow=diamond;endFill=1;strokeWidth=2;" edge="1" parent="1" source="-xa2I-5CzvBbWXcxgvTn-41" target="O3gvgiHZ3PhE2__OoeL2-10">
          <mxGeometry relative="1" as="geometry">
            <Array as="points">
              <mxPoint x="630" y="510" />
              <mxPoint x="630" y="425" />
            </Array>
          </mxGeometry>
        </mxCell>
        <mxCell id="-xa2I-5CzvBbWXcxgvTn-41" value="&lt;span style=&quot;font-size: 20px;&quot;&gt;ElectronicDensityOfStates&lt;/span&gt;" style="swimlane;fontStyle=1;align=center;verticalAlign=top;childLayout=stackLayout;horizontal=1;startSize=40;horizontalStack=0;resizeParent=1;resizeParentMax=0;resizeLast=0;collapsible=1;marginBottom=0;whiteSpace=wrap;html=1;fillColor=#009999;fontColor=#ffffff;fontFamily=Titillium Web;strokeWidth=2;" parent="1" vertex="1" collapsed="1">
          <mxGeometry x="680" y="490" width="240" height="40" as="geometry">
            <mxRectangle x="670" y="270" width="245" height="250" as="alternateBounds" />
          </mxGeometry>
        </mxCell>
        <mxCell id="-xa2I-5CzvBbWXcxgvTn-42" value="&lt;br&gt;&lt;div&gt;&lt;br&gt;&lt;/div&gt;" style="text;strokeColor=none;fillColor=none;align=left;verticalAlign=top;spacingLeft=4;spacingRight=4;overflow=hidden;rotatable=0;points=[[0,0.5],[1,0.5]];portConstraint=eastwest;whiteSpace=wrap;html=1;fontFamily=Titillium Web;" parent="-xa2I-5CzvBbWXcxgvTn-41" vertex="1">
          <mxGeometry y="40" width="245" height="110" as="geometry" />
        </mxCell>
        <mxCell id="-xa2I-5CzvBbWXcxgvTn-43" value="" style="line;strokeWidth=1;fillColor=none;align=left;verticalAlign=middle;spacingTop=-1;spacingLeft=3;spacingRight=3;rotatable=0;labelPosition=right;points=[];portConstraint=eastwest;strokeColor=inherit;fontFamily=Titillium Web;" parent="-xa2I-5CzvBbWXcxgvTn-41" vertex="1">
          <mxGeometry y="150" width="245" height="8" as="geometry" />
        </mxCell>
        <mxCell id="-xa2I-5CzvBbWXcxgvTn-44" value="&lt;div style=&quot;font-size: 16px;&quot;&gt;&lt;span style=&quot;background-color: initial;&quot;&gt;+ normalize()&lt;/span&gt;&lt;br&gt;&lt;/div&gt;" style="text;strokeColor=none;fillColor=none;align=left;verticalAlign=top;spacingLeft=4;spacingRight=4;overflow=hidden;rotatable=0;points=[[0,0.5],[1,0.5]];portConstraint=eastwest;whiteSpace=wrap;html=1;fontFamily=Titillium Web;" parent="-xa2I-5CzvBbWXcxgvTn-41" vertex="1">
          <mxGeometry y="158" width="245" height="92" as="geometry" />
        </mxCell>
        <mxCell id="SJf9l1WOMlyk7xRIwPWy-29" style="edgeStyle=orthogonalEdgeStyle;rounded=0;orthogonalLoop=1;jettySize=auto;html=1;endArrow=block;endFill=0;strokeWidth=2;" edge="1" parent="1" source="-xa2I-5CzvBbWXcxgvTn-45" target="SJf9l1WOMlyk7xRIwPWy-1">
          <mxGeometry relative="1" as="geometry">
            <Array as="points">
              <mxPoint x="980" y="630" />
              <mxPoint x="980" y="210" />
            </Array>
          </mxGeometry>
        </mxCell>
        <mxCell id="SJf9l1WOMlyk7xRIwPWy-41" style="edgeStyle=orthogonalEdgeStyle;rounded=0;orthogonalLoop=1;jettySize=auto;html=1;endArrow=diamond;endFill=1;strokeWidth=2;" edge="1" parent="1" source="-xa2I-5CzvBbWXcxgvTn-45" target="O3gvgiHZ3PhE2__OoeL2-10">
          <mxGeometry relative="1" as="geometry">
            <Array as="points">
              <mxPoint x="630" y="630" />
              <mxPoint x="630" y="425" />
            </Array>
          </mxGeometry>
        </mxCell>
        <mxCell id="-xa2I-5CzvBbWXcxgvTn-45" value="&lt;font style=&quot;font-size: 20px;&quot;&gt;ElectronicBandStructure&lt;/font&gt;" style="swimlane;fontStyle=1;align=center;verticalAlign=top;childLayout=stackLayout;horizontal=1;startSize=40;horizontalStack=0;resizeParent=1;resizeParentMax=0;resizeLast=0;collapsible=1;marginBottom=0;whiteSpace=wrap;html=1;fillColor=#009999;fontColor=#ffffff;fontFamily=Titillium Web;strokeWidth=2;" parent="1" vertex="1" collapsed="1">
          <mxGeometry x="680" y="610" width="240" height="40" as="geometry">
            <mxRectangle x="670" y="270" width="245" height="250" as="alternateBounds" />
          </mxGeometry>
        </mxCell>
        <mxCell id="-xa2I-5CzvBbWXcxgvTn-46" value="&lt;br&gt;&lt;div&gt;&lt;br&gt;&lt;/div&gt;" style="text;strokeColor=none;fillColor=none;align=left;verticalAlign=top;spacingLeft=4;spacingRight=4;overflow=hidden;rotatable=0;points=[[0,0.5],[1,0.5]];portConstraint=eastwest;whiteSpace=wrap;html=1;fontFamily=Titillium Web;" parent="-xa2I-5CzvBbWXcxgvTn-45" vertex="1">
          <mxGeometry y="40" width="245" height="110" as="geometry" />
        </mxCell>
        <mxCell id="-xa2I-5CzvBbWXcxgvTn-47" value="" style="line;strokeWidth=1;fillColor=none;align=left;verticalAlign=middle;spacingTop=-1;spacingLeft=3;spacingRight=3;rotatable=0;labelPosition=right;points=[];portConstraint=eastwest;strokeColor=inherit;fontFamily=Titillium Web;" parent="-xa2I-5CzvBbWXcxgvTn-45" vertex="1">
          <mxGeometry y="150" width="245" height="8" as="geometry" />
        </mxCell>
        <mxCell id="-xa2I-5CzvBbWXcxgvTn-48" value="&lt;div style=&quot;font-size: 16px;&quot;&gt;&lt;span style=&quot;background-color: initial;&quot;&gt;+ normalize()&lt;/span&gt;&lt;br&gt;&lt;/div&gt;" style="text;strokeColor=none;fillColor=none;align=left;verticalAlign=top;spacingLeft=4;spacingRight=4;overflow=hidden;rotatable=0;points=[[0,0.5],[1,0.5]];portConstraint=eastwest;whiteSpace=wrap;html=1;fontFamily=Titillium Web;" parent="-xa2I-5CzvBbWXcxgvTn-45" vertex="1">
          <mxGeometry y="158" width="245" height="92" as="geometry" />
        </mxCell>
        <mxCell id="SJf9l1WOMlyk7xRIwPWy-28" style="edgeStyle=orthogonalEdgeStyle;rounded=0;orthogonalLoop=1;jettySize=auto;html=1;strokeWidth=2;endArrow=block;endFill=0;" edge="1" parent="1" source="-xa2I-5CzvBbWXcxgvTn-49" target="SJf9l1WOMlyk7xRIwPWy-1">
          <mxGeometry relative="1" as="geometry">
            <Array as="points">
              <mxPoint x="980" y="570" />
              <mxPoint x="980" y="210" />
            </Array>
          </mxGeometry>
        </mxCell>
        <mxCell id="SJf9l1WOMlyk7xRIwPWy-40" style="edgeStyle=orthogonalEdgeStyle;rounded=0;orthogonalLoop=1;jettySize=auto;html=1;endArrow=diamond;endFill=1;strokeWidth=2;" edge="1" parent="1" source="-xa2I-5CzvBbWXcxgvTn-49" target="O3gvgiHZ3PhE2__OoeL2-10">
          <mxGeometry relative="1" as="geometry">
            <Array as="points">
              <mxPoint x="630" y="570" />
              <mxPoint x="630" y="425" />
            </Array>
          </mxGeometry>
        </mxCell>
        <mxCell id="-xa2I-5CzvBbWXcxgvTn-49" value="&lt;font style=&quot;font-size: 20px;&quot;&gt;FermiSurface&lt;/font&gt;" style="swimlane;fontStyle=1;align=center;verticalAlign=top;childLayout=stackLayout;horizontal=1;startSize=40;horizontalStack=0;resizeParent=1;resizeParentMax=0;resizeLast=0;collapsible=1;marginBottom=0;whiteSpace=wrap;html=1;fillColor=#009999;fontColor=#ffffff;fontFamily=Titillium Web;strokeWidth=2;" parent="1" vertex="1" collapsed="1">
          <mxGeometry x="680" y="550" width="240" height="40" as="geometry">
            <mxRectangle x="670" y="270" width="245" height="250" as="alternateBounds" />
          </mxGeometry>
        </mxCell>
        <mxCell id="-xa2I-5CzvBbWXcxgvTn-50" value="&lt;br&gt;&lt;div&gt;&lt;br&gt;&lt;/div&gt;" style="text;strokeColor=none;fillColor=none;align=left;verticalAlign=top;spacingLeft=4;spacingRight=4;overflow=hidden;rotatable=0;points=[[0,0.5],[1,0.5]];portConstraint=eastwest;whiteSpace=wrap;html=1;fontFamily=Titillium Web;" parent="-xa2I-5CzvBbWXcxgvTn-49" vertex="1">
          <mxGeometry y="40" width="245" height="110" as="geometry" />
        </mxCell>
        <mxCell id="-xa2I-5CzvBbWXcxgvTn-51" value="" style="line;strokeWidth=1;fillColor=none;align=left;verticalAlign=middle;spacingTop=-1;spacingLeft=3;spacingRight=3;rotatable=0;labelPosition=right;points=[];portConstraint=eastwest;strokeColor=inherit;fontFamily=Titillium Web;" parent="-xa2I-5CzvBbWXcxgvTn-49" vertex="1">
          <mxGeometry y="150" width="245" height="8" as="geometry" />
        </mxCell>
        <mxCell id="-xa2I-5CzvBbWXcxgvTn-52" value="&lt;div style=&quot;font-size: 16px;&quot;&gt;&lt;span style=&quot;background-color: initial;&quot;&gt;+ normalize()&lt;/span&gt;&lt;br&gt;&lt;/div&gt;" style="text;strokeColor=none;fillColor=none;align=left;verticalAlign=top;spacingLeft=4;spacingRight=4;overflow=hidden;rotatable=0;points=[[0,0.5],[1,0.5]];portConstraint=eastwest;whiteSpace=wrap;html=1;fontFamily=Titillium Web;" parent="-xa2I-5CzvBbWXcxgvTn-49" vertex="1">
          <mxGeometry y="158" width="245" height="92" as="geometry" />
        </mxCell>
        <mxCell id="SJf9l1WOMlyk7xRIwPWy-30" style="edgeStyle=orthogonalEdgeStyle;rounded=0;orthogonalLoop=1;jettySize=auto;html=1;endArrow=block;endFill=0;strokeWidth=2;" edge="1" parent="1" source="-xa2I-5CzvBbWXcxgvTn-53" target="SJf9l1WOMlyk7xRIwPWy-1">
          <mxGeometry relative="1" as="geometry">
            <Array as="points">
              <mxPoint x="980" y="690" />
              <mxPoint x="980" y="210" />
            </Array>
          </mxGeometry>
        </mxCell>
        <mxCell id="SJf9l1WOMlyk7xRIwPWy-42" style="edgeStyle=orthogonalEdgeStyle;rounded=0;orthogonalLoop=1;jettySize=auto;html=1;strokeWidth=2;endArrow=diamond;endFill=1;" edge="1" parent="1" source="-xa2I-5CzvBbWXcxgvTn-53" target="O3gvgiHZ3PhE2__OoeL2-10">
          <mxGeometry relative="1" as="geometry">
            <Array as="points">
              <mxPoint x="630" y="690" />
              <mxPoint x="630" y="425" />
            </Array>
          </mxGeometry>
        </mxCell>
        <mxCell id="-xa2I-5CzvBbWXcxgvTn-53" value="&lt;font style=&quot;font-size: 20px;&quot;&gt;Permittivity&lt;/font&gt;" style="swimlane;fontStyle=1;align=center;verticalAlign=top;childLayout=stackLayout;horizontal=1;startSize=40;horizontalStack=0;resizeParent=1;resizeParentMax=0;resizeLast=0;collapsible=1;marginBottom=0;whiteSpace=wrap;html=1;fillColor=#009999;fontColor=#ffffff;fontFamily=Titillium Web;strokeWidth=2;" parent="1" vertex="1" collapsed="1">
          <mxGeometry x="680" y="670" width="240" height="40" as="geometry">
            <mxRectangle x="670" y="270" width="245" height="250" as="alternateBounds" />
          </mxGeometry>
        </mxCell>
        <mxCell id="-xa2I-5CzvBbWXcxgvTn-54" value="&lt;br&gt;&lt;div&gt;&lt;br&gt;&lt;/div&gt;" style="text;strokeColor=none;fillColor=none;align=left;verticalAlign=top;spacingLeft=4;spacingRight=4;overflow=hidden;rotatable=0;points=[[0,0.5],[1,0.5]];portConstraint=eastwest;whiteSpace=wrap;html=1;fontFamily=Titillium Web;" parent="-xa2I-5CzvBbWXcxgvTn-53" vertex="1">
          <mxGeometry y="40" width="245" height="110" as="geometry" />
        </mxCell>
        <mxCell id="-xa2I-5CzvBbWXcxgvTn-55" value="" style="line;strokeWidth=1;fillColor=none;align=left;verticalAlign=middle;spacingTop=-1;spacingLeft=3;spacingRight=3;rotatable=0;labelPosition=right;points=[];portConstraint=eastwest;strokeColor=inherit;fontFamily=Titillium Web;" parent="-xa2I-5CzvBbWXcxgvTn-53" vertex="1">
          <mxGeometry y="150" width="245" height="8" as="geometry" />
        </mxCell>
        <mxCell id="-xa2I-5CzvBbWXcxgvTn-56" value="&lt;div style=&quot;font-size: 16px;&quot;&gt;&lt;span style=&quot;background-color: initial;&quot;&gt;+ normalize()&lt;/span&gt;&lt;br&gt;&lt;/div&gt;" style="text;strokeColor=none;fillColor=none;align=left;verticalAlign=top;spacingLeft=4;spacingRight=4;overflow=hidden;rotatable=0;points=[[0,0.5],[1,0.5]];portConstraint=eastwest;whiteSpace=wrap;html=1;fontFamily=Titillium Web;" parent="-xa2I-5CzvBbWXcxgvTn-53" vertex="1">
          <mxGeometry y="158" width="245" height="92" as="geometry" />
        </mxCell>
        <mxCell id="SJf9l1WOMlyk7xRIwPWy-31" style="edgeStyle=orthogonalEdgeStyle;rounded=0;orthogonalLoop=1;jettySize=auto;html=1;endArrow=block;endFill=0;strokeWidth=2;" edge="1" parent="1" source="-xa2I-5CzvBbWXcxgvTn-57" target="SJf9l1WOMlyk7xRIwPWy-1">
          <mxGeometry relative="1" as="geometry">
            <Array as="points">
              <mxPoint x="980" y="750" />
              <mxPoint x="980" y="210" />
            </Array>
          </mxGeometry>
        </mxCell>
        <mxCell id="SJf9l1WOMlyk7xRIwPWy-43" style="edgeStyle=orthogonalEdgeStyle;rounded=0;orthogonalLoop=1;jettySize=auto;html=1;endArrow=diamond;endFill=1;strokeWidth=2;" edge="1" parent="1" source="-xa2I-5CzvBbWXcxgvTn-57" target="O3gvgiHZ3PhE2__OoeL2-10">
          <mxGeometry relative="1" as="geometry">
            <Array as="points">
              <mxPoint x="630" y="750" />
              <mxPoint x="630" y="425" />
            </Array>
          </mxGeometry>
        </mxCell>
        <mxCell id="-xa2I-5CzvBbWXcxgvTn-57" value="&lt;font style=&quot;font-size: 20px;&quot;&gt;AbsorptionSpectrum&lt;/font&gt;" style="swimlane;fontStyle=1;align=center;verticalAlign=top;childLayout=stackLayout;horizontal=1;startSize=40;horizontalStack=0;resizeParent=1;resizeParentMax=0;resizeLast=0;collapsible=1;marginBottom=0;whiteSpace=wrap;html=1;fillColor=#009999;fontColor=#ffffff;fontFamily=Titillium Web;strokeWidth=2;" parent="1" vertex="1" collapsed="1">
          <mxGeometry x="680" y="730" width="240" height="40" as="geometry">
            <mxRectangle x="670" y="270" width="245" height="250" as="alternateBounds" />
          </mxGeometry>
        </mxCell>
        <mxCell id="-xa2I-5CzvBbWXcxgvTn-58" value="&lt;br&gt;&lt;div&gt;&lt;br&gt;&lt;/div&gt;" style="text;strokeColor=none;fillColor=none;align=left;verticalAlign=top;spacingLeft=4;spacingRight=4;overflow=hidden;rotatable=0;points=[[0,0.5],[1,0.5]];portConstraint=eastwest;whiteSpace=wrap;html=1;fontFamily=Titillium Web;" parent="-xa2I-5CzvBbWXcxgvTn-57" vertex="1">
          <mxGeometry y="40" width="245" height="110" as="geometry" />
        </mxCell>
        <mxCell id="-xa2I-5CzvBbWXcxgvTn-59" value="" style="line;strokeWidth=1;fillColor=none;align=left;verticalAlign=middle;spacingTop=-1;spacingLeft=3;spacingRight=3;rotatable=0;labelPosition=right;points=[];portConstraint=eastwest;strokeColor=inherit;fontFamily=Titillium Web;" parent="-xa2I-5CzvBbWXcxgvTn-57" vertex="1">
          <mxGeometry y="150" width="245" height="8" as="geometry" />
        </mxCell>
        <mxCell id="-xa2I-5CzvBbWXcxgvTn-60" value="&lt;div style=&quot;font-size: 16px;&quot;&gt;&lt;span style=&quot;background-color: initial;&quot;&gt;+ normalize()&lt;/span&gt;&lt;br&gt;&lt;/div&gt;" style="text;strokeColor=none;fillColor=none;align=left;verticalAlign=top;spacingLeft=4;spacingRight=4;overflow=hidden;rotatable=0;points=[[0,0.5],[1,0.5]];portConstraint=eastwest;whiteSpace=wrap;html=1;fontFamily=Titillium Web;" parent="-xa2I-5CzvBbWXcxgvTn-57" vertex="1">
          <mxGeometry y="158" width="245" height="92" as="geometry" />
        </mxCell>
        <mxCell id="SJf9l1WOMlyk7xRIwPWy-32" style="edgeStyle=orthogonalEdgeStyle;rounded=0;orthogonalLoop=1;jettySize=auto;html=1;strokeWidth=2;endArrow=block;endFill=0;" edge="1" parent="1" source="-xa2I-5CzvBbWXcxgvTn-61" target="SJf9l1WOMlyk7xRIwPWy-1">
          <mxGeometry relative="1" as="geometry">
            <Array as="points">
              <mxPoint x="980" y="810" />
              <mxPoint x="980" y="210" />
            </Array>
          </mxGeometry>
        </mxCell>
        <mxCell id="SJf9l1WOMlyk7xRIwPWy-44" style="edgeStyle=orthogonalEdgeStyle;rounded=0;orthogonalLoop=1;jettySize=auto;html=1;endArrow=diamond;endFill=1;strokeWidth=2;" edge="1" parent="1" source="-xa2I-5CzvBbWXcxgvTn-61" target="O3gvgiHZ3PhE2__OoeL2-10">
          <mxGeometry relative="1" as="geometry">
            <Array as="points">
              <mxPoint x="630" y="810" />
              <mxPoint x="630" y="425" />
            </Array>
          </mxGeometry>
        </mxCell>
        <mxCell id="-xa2I-5CzvBbWXcxgvTn-61" value="&lt;font style=&quot;font-size: 20px;&quot;&gt;XASSpectrum&lt;/font&gt;" style="swimlane;fontStyle=1;align=center;verticalAlign=top;childLayout=stackLayout;horizontal=1;startSize=40;horizontalStack=0;resizeParent=1;resizeParentMax=0;resizeLast=0;collapsible=1;marginBottom=0;whiteSpace=wrap;html=1;fillColor=#009999;fontColor=#ffffff;fontFamily=Titillium Web;strokeWidth=2;" parent="1" vertex="1" collapsed="1">
          <mxGeometry x="680" y="790" width="240" height="40" as="geometry">
            <mxRectangle x="670" y="270" width="245" height="250" as="alternateBounds" />
          </mxGeometry>
        </mxCell>
        <mxCell id="-xa2I-5CzvBbWXcxgvTn-62" value="&lt;br&gt;&lt;div&gt;&lt;br&gt;&lt;/div&gt;" style="text;strokeColor=none;fillColor=none;align=left;verticalAlign=top;spacingLeft=4;spacingRight=4;overflow=hidden;rotatable=0;points=[[0,0.5],[1,0.5]];portConstraint=eastwest;whiteSpace=wrap;html=1;fontFamily=Titillium Web;" parent="-xa2I-5CzvBbWXcxgvTn-61" vertex="1">
          <mxGeometry y="40" width="245" height="110" as="geometry" />
        </mxCell>
        <mxCell id="-xa2I-5CzvBbWXcxgvTn-63" value="" style="line;strokeWidth=1;fillColor=none;align=left;verticalAlign=middle;spacingTop=-1;spacingLeft=3;spacingRight=3;rotatable=0;labelPosition=right;points=[];portConstraint=eastwest;strokeColor=inherit;fontFamily=Titillium Web;" parent="-xa2I-5CzvBbWXcxgvTn-61" vertex="1">
          <mxGeometry y="150" width="245" height="8" as="geometry" />
        </mxCell>
        <mxCell id="-xa2I-5CzvBbWXcxgvTn-64" value="&lt;div style=&quot;font-size: 16px;&quot;&gt;&lt;span style=&quot;background-color: initial;&quot;&gt;+ normalize()&lt;/span&gt;&lt;br&gt;&lt;/div&gt;" style="text;strokeColor=none;fillColor=none;align=left;verticalAlign=top;spacingLeft=4;spacingRight=4;overflow=hidden;rotatable=0;points=[[0,0.5],[1,0.5]];portConstraint=eastwest;whiteSpace=wrap;html=1;fontFamily=Titillium Web;" parent="-xa2I-5CzvBbWXcxgvTn-61" vertex="1">
          <mxGeometry y="158" width="245" height="92" as="geometry" />
        </mxCell>
        <mxCell id="SJf9l1WOMlyk7xRIwPWy-1" value="&lt;font style=&quot;font-size: 20px;&quot;&gt;PhysicalProperty&lt;/font&gt;" style="swimlane;fontStyle=1;align=center;verticalAlign=top;childLayout=stackLayout;horizontal=1;startSize=40;horizontalStack=0;resizeParent=1;resizeParentMax=0;resizeLast=0;collapsible=1;marginBottom=0;whiteSpace=wrap;html=1;fillColor=#2A4CDF;fontColor=#ffffff;fontFamily=Titillium Web;strokeWidth=2;" vertex="1" parent="1">
          <mxGeometry x="1040" width="350" height="420" as="geometry">
            <mxRectangle x="790" y="120" width="80" height="30" as="alternateBounds" />
          </mxGeometry>
        </mxCell>
        <mxCell id="SJf9l1WOMlyk7xRIwPWy-2" value="&lt;span style=&quot;border-color: var(--border-color); color: rgb(0, 0, 0); font-family: &amp;quot;Titillium Web&amp;quot;; font-variant-ligatures: normal; font-variant-caps: normal; letter-spacing: normal; orphans: 2; text-align: left; text-indent: 0px; text-transform: none; widows: 2; word-spacing: 0px; -webkit-text-stroke-width: 0px; background-color: rgb(251, 251, 251); text-decoration-thickness: initial; text-decoration-style: initial; text-decoration-color: initial; font-size: 15px;&quot;&gt;&lt;span style=&quot;border-color: var(--border-color);&quot;&gt;&lt;span style=&quot;border-color: var(--border-color);&quot;&gt;&lt;i style=&quot;&quot;&gt;&lt;font style=&quot;font-size: 15px;&quot;&gt;&amp;lt;definitions&amp;gt;&lt;/font&gt;&lt;/i&gt;&lt;/span&gt;&lt;/span&gt;&lt;/span&gt;&lt;div style=&quot;font-size: 15px;&quot;&gt;&lt;font style=&quot;font-size: 15px;&quot;&gt;+ iri: URL&lt;br&gt;&lt;/font&gt;&lt;/div&gt;&lt;div style=&quot;font-size: 15px;&quot;&gt;&lt;span style=&quot;border-color: var(--border-color); color: rgb(0, 0, 0); font-family: &amp;quot;Titillium Web&amp;quot;; font-style: normal; font-variant-ligatures: normal; font-variant-caps: normal; letter-spacing: normal; orphans: 2; text-align: left; text-indent: 0px; text-transform: none; widows: 2; word-spacing: 0px; -webkit-text-stroke-width: 0px; background-color: rgb(251, 251, 251); text-decoration-thickness: initial; text-decoration-style: initial; text-decoration-color: initial;&quot;&gt;&lt;span style=&quot;border-color: var(--border-color);&quot;&gt;&lt;span style=&quot;border-color: var(--border-color);&quot;&gt;&lt;font style=&quot;font-size: 15px;&quot;&gt;+ description: str&lt;/font&gt;&lt;/span&gt;&lt;/span&gt;&lt;/span&gt;&lt;/div&gt;&lt;div style=&quot;font-size: 15px;&quot;&gt;&lt;font style=&quot;font-size: 15px;&quot;&gt;+ rank: Dimension&lt;/font&gt;&lt;/div&gt;&lt;div style=&quot;font-size: 15px;&quot;&gt;&lt;span style=&quot;background-color: initial;&quot;&gt;&lt;i style=&quot;&quot;&gt;&lt;font style=&quot;font-size: 15px;&quot;&gt;&amp;lt;quantities&amp;gt;&lt;/font&gt;&lt;/i&gt;&lt;/span&gt;&lt;/div&gt;&lt;div style=&quot;font-size: 15px;&quot;&gt;&lt;span style=&quot;background-color: initial;&quot;&gt;&lt;font style=&quot;font-size: 15px;&quot;&gt;+ source: MEnum(str)&lt;/font&gt;&lt;/span&gt;&lt;/div&gt;&lt;div style=&quot;font-size: 15px;&quot;&gt;&lt;span style=&quot;background-color: initial;&quot;&gt;&lt;font style=&quot;font-size: 15px;&quot;&gt;+ kind: str&lt;/font&gt;&lt;/span&gt;&lt;/div&gt;&lt;div style=&quot;font-size: 15px;&quot;&gt;&lt;span style=&quot;background-color: initial;&quot;&gt;&lt;font style=&quot;font-size: 15px;&quot;&gt;+ label: str&lt;/font&gt;&lt;/span&gt;&lt;/div&gt;&lt;div style=&quot;font-size: 15px;&quot;&gt;&lt;span style=&quot;background-color: initial;&quot;&gt;&lt;font style=&quot;font-size: 15px;&quot;&gt;+ value&lt;/font&gt;&lt;/span&gt;&lt;/div&gt;&lt;div style=&quot;font-size: 15px;&quot;&gt;&lt;span style=&quot;background-color: initial;&quot;&gt;&lt;font style=&quot;font-size: 15px;&quot;&gt;+ variables: &lt;b&gt;Variables&lt;/b&gt;&lt;/font&gt;&lt;/span&gt;&lt;/div&gt;&lt;div style=&quot;font-size: 15px;&quot;&gt;&lt;span style=&quot;background-color: initial;&quot;&gt;&lt;font style=&quot;font-size: 15px;&quot;&gt;+ entity_ref: &lt;b&gt;Reference(Entity)&lt;/b&gt;&lt;/font&gt;&lt;/span&gt;&lt;/div&gt;&lt;div style=&quot;font-size: 15px;&quot;&gt;&lt;span style=&quot;background-color: initial;&quot;&gt;&lt;font style=&quot;font-size: 15px;&quot;&gt;+ physical_property_ref: &lt;b&gt;Reference(PhysicalProperty)&lt;/b&gt;&lt;/font&gt;&lt;/span&gt;&lt;/div&gt;&lt;div style=&quot;font-size: 15px;&quot;&gt;&lt;span style=&quot;background-color: initial;&quot;&gt;&lt;font style=&quot;font-size: 15px;&quot;&gt;+ is_derived: bool&lt;/font&gt;&lt;/span&gt;&lt;/div&gt;&lt;div style=&quot;font-size: 15px;&quot;&gt;&lt;span style=&quot;background-color: initial;&quot;&gt;&lt;font style=&quot;font-size: 15px;&quot;&gt;+ self_consistency_ref: &lt;b&gt;Reference(SelfConsistency)&lt;/b&gt;&lt;/font&gt;&lt;/span&gt;&lt;/div&gt;&lt;div style=&quot;font-size: 15px;&quot;&gt;&lt;span style=&quot;background-color: initial;&quot;&gt;&lt;font style=&quot;font-size: 15px;&quot;&gt;+ is_scf_converged: bool&lt;/font&gt;&lt;/span&gt;&lt;/div&gt;" style="text;strokeColor=none;fillColor=none;align=left;verticalAlign=top;spacingLeft=4;spacingRight=4;overflow=hidden;rotatable=0;points=[[0,0.5],[1,0.5]];portConstraint=eastwest;whiteSpace=wrap;html=1;fontFamily=Titillium Web;" vertex="1" parent="SJf9l1WOMlyk7xRIwPWy-1">
          <mxGeometry y="40" width="350" height="300" as="geometry" />
        </mxCell>
        <mxCell id="SJf9l1WOMlyk7xRIwPWy-3" value="" style="line;strokeWidth=1;fillColor=none;align=left;verticalAlign=middle;spacingTop=-1;spacingLeft=3;spacingRight=3;rotatable=0;labelPosition=right;points=[];portConstraint=eastwest;strokeColor=inherit;fontFamily=Titillium Web;" vertex="1" parent="SJf9l1WOMlyk7xRIwPWy-1">
          <mxGeometry y="340" width="350" height="8" as="geometry" />
        </mxCell>
        <mxCell id="SJf9l1WOMlyk7xRIwPWy-4" value="&lt;div style=&quot;font-size: 15px;&quot;&gt;&lt;font style=&quot;font-size: 15px;&quot;&gt;&amp;lt;property&amp;gt; + variables_shape()&lt;/font&gt;&lt;/div&gt;&lt;div style=&quot;font-size: 15px;&quot;&gt;&lt;font style=&quot;font-size: 15px;&quot;&gt;&amp;lt;property&amp;gt; + full_shape()&lt;/font&gt;&lt;/div&gt;&lt;div style=&quot;font-size: 15px;&quot;&gt;&lt;span style=&quot;background-color: initial;&quot;&gt;&lt;font style=&quot;font-size: 15px;&quot;&gt;+ normalize()&lt;/font&gt;&lt;/span&gt;&lt;/div&gt;" style="text;strokeColor=none;fillColor=none;align=left;verticalAlign=top;spacingLeft=4;spacingRight=4;overflow=hidden;rotatable=0;points=[[0,0.5],[1,0.5]];portConstraint=eastwest;whiteSpace=wrap;html=1;fontFamily=Titillium Web;" vertex="1" parent="SJf9l1WOMlyk7xRIwPWy-1">
          <mxGeometry y="348" width="350" height="72" as="geometry" />
        </mxCell>
        <mxCell id="SJf9l1WOMlyk7xRIwPWy-5" value="&lt;font face=&quot;Titillium Web&quot; style=&quot;font-size: 13px;&quot;&gt;variables&lt;/font&gt;" style="edgeStyle=orthogonalEdgeStyle;rounded=0;orthogonalLoop=1;jettySize=auto;html=1;endArrow=diamond;endFill=1;strokeWidth=2;" edge="1" parent="1" source="SJf9l1WOMlyk7xRIwPWy-6" target="SJf9l1WOMlyk7xRIwPWy-1">
          <mxGeometry relative="1" as="geometry" />
        </mxCell>
        <mxCell id="SJf9l1WOMlyk7xRIwPWy-6" value="&lt;font style=&quot;font-size: 20px;&quot;&gt;Variables&lt;/font&gt;" style="swimlane;fontStyle=1;align=center;verticalAlign=top;childLayout=stackLayout;horizontal=1;startSize=40;horizontalStack=0;resizeParent=1;resizeParentMax=0;resizeLast=0;collapsible=1;marginBottom=0;whiteSpace=wrap;html=1;fillColor=#2A4CDF;fontColor=#ffffff;fontFamily=Titillium Web;strokeWidth=2;" vertex="1" parent="1">
          <mxGeometry x="1450" y="135" width="190" height="150" as="geometry">
            <mxRectangle x="790" y="120" width="80" height="30" as="alternateBounds" />
          </mxGeometry>
        </mxCell>
        <mxCell id="SJf9l1WOMlyk7xRIwPWy-7" value="&lt;div style=&quot;font-size: 15px;&quot;&gt;&lt;span style=&quot;background-color: initial;&quot;&gt;&lt;font style=&quot;font-size: 15px;&quot;&gt;+ n_points: int&lt;br&gt;&lt;/font&gt;&lt;/span&gt;&lt;/div&gt;&lt;div style=&quot;font-size: 15px;&quot;&gt;&lt;span style=&quot;background-color: initial;&quot;&gt;&lt;font style=&quot;font-size: 15px;&quot;&gt;+ points: np.float64&lt;/font&gt;&lt;/span&gt;&lt;/div&gt;" style="text;strokeColor=none;fillColor=none;align=left;verticalAlign=top;spacingLeft=4;spacingRight=4;overflow=hidden;rotatable=0;points=[[0,0.5],[1,0.5]];portConstraint=eastwest;whiteSpace=wrap;html=1;fontFamily=Titillium Web;" vertex="1" parent="SJf9l1WOMlyk7xRIwPWy-6">
          <mxGeometry y="40" width="190" height="50" as="geometry" />
        </mxCell>
        <mxCell id="SJf9l1WOMlyk7xRIwPWy-8" value="" style="line;strokeWidth=1;fillColor=none;align=left;verticalAlign=middle;spacingTop=-1;spacingLeft=3;spacingRight=3;rotatable=0;labelPosition=right;points=[];portConstraint=eastwest;strokeColor=inherit;fontFamily=Titillium Web;" vertex="1" parent="SJf9l1WOMlyk7xRIwPWy-6">
          <mxGeometry y="90" width="190" height="8" as="geometry" />
        </mxCell>
        <mxCell id="SJf9l1WOMlyk7xRIwPWy-9" value="&lt;div style=&quot;font-size: 15px;&quot;&gt;&lt;span style=&quot;background-color: initial;&quot;&gt;+ get_n_points()&lt;/span&gt;&lt;/div&gt;&lt;div style=&quot;font-size: 15px;&quot;&gt;&lt;span style=&quot;background-color: initial;&quot;&gt;+ normalize()&lt;/span&gt;&lt;/div&gt;" style="text;strokeColor=none;fillColor=none;align=left;verticalAlign=top;spacingLeft=4;spacingRight=4;overflow=hidden;rotatable=0;points=[[0,0.5],[1,0.5]];portConstraint=eastwest;whiteSpace=wrap;html=1;fontFamily=Titillium Web;" vertex="1" parent="SJf9l1WOMlyk7xRIwPWy-6">
          <mxGeometry y="98" width="190" height="52" as="geometry" />
        </mxCell>
        <mxCell id="SJf9l1WOMlyk7xRIwPWy-48" value="" style="endArrow=none;html=1;rounded=0;strokeWidth=2;endFill=0;startArrow=classic;startFill=1;" edge="1" parent="1">
          <mxGeometry width="50" height="50" relative="1" as="geometry">
            <mxPoint x="40" y="650" as="sourcePoint" />
            <mxPoint x="110" y="650" as="targetPoint" />
          </mxGeometry>
        </mxCell>
        <mxCell id="SJf9l1WOMlyk7xRIwPWy-49" value="&lt;font style=&quot;font-size: 14px;&quot; face=&quot;Titillium Web&quot;&gt;reference to&lt;/font&gt;" style="text;html=1;align=center;verticalAlign=middle;whiteSpace=wrap;rounded=0;" vertex="1" parent="1">
          <mxGeometry x="110" y="640" width="80" height="20" as="geometry" />
        </mxCell>
      </root>
    </mxGraphModel>
  </diagram>
</mxfile>
